<?xml version="1.0" encoding="UTF-8"?>
<svg id="Capa_2" data-name="Capa 2" xmlns="http://www.w3.org/2000/svg" viewBox="0 0 547.53 124.67">
  <defs>
    <style>
      .cls-1 {
        fill: #0a62f8;
      }

      .cls-2 {
        fill: #fff;
      }
    </style>
  </defs>
  <g id="Capa_1-2" data-name="Capa 1">
    <g>
      <g>
        <path class="cls-1" d="M134.63,44.26h-40.42c-1.25-2.27-2.5-4.54-3.75-6.8-6.36-11.55-12.73-23.11-19.09-34.66-.51-.93-1.02-1.86-1.54-2.79h40.42c.42.77.85,1.53,1.27,2.3,2.2,4,4.4,7.99,6.6,11.99,5.51,9.99,11.01,19.98,16.51,29.97Z"/>
        <path class="cls-1" d="M84.99,49.33l-3.85,6.43-17.43,29.1-9.08,15.15-14.77,24.66H0l14.77-24.66,26.51-44.26,3.33-5.56c-1.09-1.98-2.18-3.96-3.27-5.94C33.21,29.51,25.09,14.75,16.96,0h40.86c2.69,4.89,5.38,9.77,8.07,14.66,5.43,9.86,10.87,19.73,16.3,29.6.93,1.69,1.86,3.38,2.79,5.07Z"/>
        <polygon class="cls-1" points="132 53.71 116.34 79.86 109.23 91.73 105.5 97.97 68.16 97.97 70.06 94.8 91.34 59.26 91.34 59.26 94.67 53.71 132 53.71"/>
      </g>
      <g>
        <path class="cls-2" d="M224.05,30.58c-1.9-2.45-4.94-3.77-9.11-3.96-3.07-.13-6.25-.21-9.51-.25-3.27-.03-6.45-.04-9.52-.04-1.83,0-3.65.01-5.48.04-1.84.04-3.66.05-5.49.05-2.22,0-4.32.02-6.28.05-1.96.03-4.05.04-6.27.04-.98,3.86-1.96,7.65-2.94,11.38-.99,3.73-1.93,7.51-2.84,11.37-1.57,6.34-3.06,12.46-4.46,18.33-1.4,5.89-2.93,12.03-4.56,18.43h11.56l4.81-17.64h22.15c2.16,0,4.3-.08,6.42-.25,2.12-.16,4.18-.54,6.18-1.12,1.99-.59,3.87-1.45,5.64-2.61,1.76-1.14,3.36-2.69,4.81-4.65,1.89-2.74,3.45-5.74,4.65-8.97,1.21-3.24,1.98-6.55,2.3-9.95.52-4.37-.17-7.79-2.06-10.24ZM211.36,49.02c-1.06,2.18-2.4,4.3-4.38,5.69-3.04,2.14-7.04,2.21-10.75,2.2-5.37-.01-10.74-.08-16.1-.09-1.02-.01-1.86,0-2.39,0,1.68-6.74,3.35-13.46,5.03-20.2h2.54c6.34,0,12.67-.04,19.02-.02,1.47,0,2.97.01,4.39.38,1.42.36,2.8,1.14,3.59,2.39.64,1.01.85,2.23.83,3.43-.05,2.18-.83,4.28-1.79,6.23Z"/>
        <path class="cls-2" d="M272.52,44.84c-1.28-1.3-2.96-2.25-5.05-2.83-2.09-.59-4.49-.9-7.2-.93-2.71-.03-5.47-.05-8.28-.05-3.07,0-6.11.03-9.11.1-3.01.06-6.04.09-9.11.09l-2.16,9.8h18.04c1.4,0,2.81.07,4.22.1,1.27.02,2.61-.13,3.87.11.85.17,1.69.57,2.21,1.26.42.55.61,1.24.7,1.92.1.77.09,1.56-.03,2.34-.06.36-.17.74-.4,1.02-.32.36-.84.49-1.32.56-1.62.24-3.26.17-4.9.11-5.68-.17-11.46-.2-17.09.67-4.88.74-9.58,2.52-12.38,6.8-1.56,2.37-2.46,5.12-3.04,7.9-.35,1.7-.59,3.46-.39,5.19.21,1.73.89,3.46,2.15,4.66,1.42,1.35,3.4,1.92,5.32,2.26,5.42.98,11.2.79,16.58-.35,2.94-.61,5.81-1.91,8.63-3.87l-.39,4.32h12.46l8.03-30.97c.39-1.57.59-3.04.59-4.41,0-2.55-.64-4.48-1.91-5.79ZM255.9,71.02c-.46,1.11-1.03,1.99-1.71,2.65s-1.5,1.16-2.45,1.52c-.95.36-1.98.67-3.09.93-1.25.33-2.66.56-4.27.69-1.6.13-3.13.13-4.61,0-1.46-.12-2.71-.46-3.72-.98-1.02-.53-1.53-1.28-1.53-2.26,0-1.89.53-3.34,1.57-4.36,1.05-1.01,2.36-1.73,3.92-2.16.16-.03.3-.07.46-.11,2.65-.64,5.44-.62,8.15-.62,1.4,0,2.8.03,4.2.1.33.01,4.04.3,4.05.2-.19,1.83-.52,3.3-.98,4.41Z"/>
        <path class="cls-2" d="M397.77,52.32c-.24-.32-.57-.61-.98-.83.49.32.89.71,1.2,1.17-.07-.11-.15-.23-.23-.34Z"/>
        <path class="cls-2" d="M410.99,45.96c-.13-.26-.28-.51-.44-.75-1.01-1.51-2.54-2.61-4.21-3.33s-3.46-1.08-5.25-1.34c-7.51-1.06-15.32-.24-22.39,2.53.19-.9.38-1.79.57-2.69h-11.84l-.67,2.68-.02.04c-.05.18-.1.36-.16.56-2.36,9.41-4.74,18.78-7.15,28.09-1.56,5.99-3.11,12.04-4.67,18.15-.86,3.39-1.72,6.8-2.58,10.22h11.78s4.7-16.44,4.78-16.76c-.06.24,4.28,1.7,4.74,1.85,1.81.58,3.68,1.01,5.56,1.28,3.78.55,7.64.49,11.41-.09,4.78-.74,9.63-2.43,12.94-5.95,2.23-2.37,3.61-5.41,4.61-8.51,1.05-3.25,1.96-6.62,2.73-9.94.43-1.83.77-3.64,1.03-5.44.5-3.36.88-7.46-.76-10.6ZM398.7,57.17c-.52,3.07-1.11,5.83-1.76,8.28-.65,2.45-1.56,4.55-2.7,6.27-.95,1.45-2.15,2.62-3.56,3.49-.63.3-1.29.55-1.96.76-1.17.36-2.37.6-3.57.74-3.14.32-6.25.19-9.32-.62-.94-.25-1.91-.57-2.62-1.26-.83-.79-1.18-1.98-1.19-3.13-.02-1.15.27-2.28.55-3.39.09-.36,3.1-12.11,4.15-13.5,1.43-1.92,3.8-2.92,6.13-3.46,2.84-.65,5.78-.75,8.7-.8,2.22-.04,5.11.02,6.46,2.14.58,1.03.81,2.52.7,4.49Z"/>
        <path class="cls-2" d="M464.73,44.21c-1.65-1.65-4.12-2.33-6.36-2.68-3.08-.47-6.39-.5-9.52-.67-8.06-.43-17.01-.46-23.87,4.33-2.02,1.4-3.76,3.11-5.19,5.14-1.44,2.03-2.55,4.35-3.33,6.96-.85,2.68-1.64,5.36-2.36,8.03-.72,2.68-1.34,5.4-1.86,8.14-.33,1.57-.34,3.05-.05,4.46.29,1.4.8,2.65,1.52,3.73.73,1.08,1.62,1.95,2.7,2.65,1.08.69,2.24,1.09,3.48,1.22,2.95.32,5.83.57,8.68.73,2.84.17,5.7.25,8.57.25s5.48-.09,7.99-.29c2.51-.2,4.84-.71,6.96-1.53,2.12-.81,3.96-2.02,5.53-3.62,1.57-1.6,2.78-3.78,3.63-6.52.52-1.7,1.06-3.55,1.61-5.54.56-1.99,1.1-3.99,1.62-5.98.53-1.99.99-3.93,1.37-5.83.39-1.89.7-3.59.88-5.1.39-3.53-.27-6.15-2-7.89ZM452.73,57.1c-.52,3.07-1.11,5.83-1.76,8.28-.65,2.45-1.56,4.55-2.7,6.27-1.14,1.73-2.62,3.06-4.41,3.98-1.8.91-4.07,1.37-6.81,1.37-4.32,0-7.31-.52-8.97-1.57-1.67-1.05-2.41-2.94-2.21-5.69.07-1.11.26-2.34.59-3.67.32-1.34.75-2.7,1.28-4.07.85-2.88,1.68-5.1,2.5-6.66.81-1.57,1.88-2.71,3.19-3.44,1.3-.72,3.02-1.14,5.14-1.27,2.13-.13,4.98-.2,8.58-.2,2.35.2,3.9.8,4.65,1.81.76,1.02,1.06,2.64.93,4.86Z"/>
        <path class="cls-2" d="M397.99,52.66c-.31-.47-.72-.85-1.2-1.17.4.22.74.51.98.83.08.11.16.23.23.34Z"/>
        <path class="cls-2" d="M519.53,44.21c-3.33-3.33-9.17-2.91-13.47-3.17-6.31-.38-13.45-.95-19.57.92-2.45.75-4.69,1.83-6.72,3.24-2.02,1.4-3.76,3.11-5.19,5.14-1.44,2.03-2.55,4.35-3.33,6.96-.85,2.68-1.64,5.36-2.36,8.03-.72,2.68-1.34,5.4-1.86,8.14-.33,1.57-.34,3.05-.05,4.46.29,1.4.8,2.65,1.52,3.73.72,1.08,1.62,1.95,2.7,2.65,1.08.69,2.24,1.09,3.48,1.22,2.95.32,5.83.57,8.68.73,2.84.17,5.7.25,8.57.25s5.48-.09,7.99-.29c2.51-.2,4.84-.71,6.96-1.53,2.12-.81,3.96-2.02,5.53-3.62,1.57-1.6,2.78-3.78,3.63-6.52.52-1.7,1.06-3.55,1.61-5.54.56-1.99,1.1-3.99,1.62-5.98s.99-3.93,1.37-5.83c.39-1.89.69-3.59.88-5.1.39-3.53-.27-6.15-2-7.89ZM507.52,57.1c-.53,3.07-1.11,5.83-1.76,8.28-.65,2.45-1.56,4.55-2.7,6.27-1.14,1.73-2.62,3.06-4.41,3.98s-4.07,1.37-6.81,1.37c-4.32,0-7.31-.52-8.97-1.57-1.67-1.05-2.41-2.94-2.21-5.69.06-1.11.26-2.34.59-3.67.32-1.34.75-2.7,1.28-4.07.84-2.88,1.68-5.1,2.5-6.66.81-1.57,1.87-2.71,3.18-3.44,1.31-.72,3.03-1.14,5.15-1.27,2.13-.13,4.98-.2,8.58-.2,2.35.2,3.9.8,4.65,1.81.76,1.02,1.06,2.64.93,4.86Z"/>
        <path class="cls-2" d="M547.53,23.49l-.02.08-.04.17-15.84,62.37h-13.13c.98-4.11,14.88-58.61,14.88-58.61l1.01-4.04,13.14.03Z"/>
        <path class="cls-2" d="M311.32,40.73c-.94,3.44-1.87,6.88-2.81,10.32-2.12.01-3.83,0-5.03,0-.4,0-1.72,0-3.41.01-2.13.03-3.2.05-3.66.19-1.83.55-2.99,2.1-3.46,3.89-1.25,4.64-2.5,9.25-3.78,13.83-.56,2-1.11,4.03-1.63,6.06l-.02.08c-.67,2.57-1.32,5.16-1.93,7.77l-.11.47-.66,2.67h-12.77l.02-.1.02-.09c1.43-5.78,2.8-11.44,4.1-16.96,1.31-5.55,2.62-11.07,3.92-16.57,1.11-4.11,2.92-7.07,5.44-8.86,2.51-1.81,5.9-2.7,10.14-2.7h15.62Z"/>
        <path class="cls-2" d="M362.94,41.51l-5.24,4.3-.66.54-19.1,15.65c2.36,4.06,4.72,8.04,7.11,11.96,2.39,3.92,4.85,8.04,7.4,12.35l-13.67-.07h-1.46s-1.63-2.57-1.63-2.57l-2.01-3.16h-.01l-4.25-6.64c-1.06-1.67-2.13-3.36-3.19-5.08-1.12-1.8-2.21-3.57-3.29-5.35-1.85,7.53-3.68,15.05-5.53,22.56-4.56.04-9.12.07-13.68.1,1.38-5.75,2.73-11.43,4.07-17.05,1.34-5.62,2.73-11.27,4.17-16.96,1.11-4.37,2.25-8.72,3.43-13.04,1.02-3.71,1.98-7.44,2.9-11.21l.45-1.85.59-2.48h1.92s11.5.05,11.5.05c-1.56,5.99-7.61,30.52-9.02,36.59,4.35-3.25,8.77-6.39,13.14-9.62.98-.73,1.93-1.47,2.9-2.23l8.74-6.86s13.83.04,14.44.06Z"/>
      </g>
    </g>
  </g>
</svg>